<svg xmlns="http://www.w3.org/2000/svg" xmlns:xlink="http://www.w3.org/1999/xlink" width="16" height="16" viewBox="0 0 16 16">
  <defs>
    <path id="search-a" d="M17.49,16 L13.76,12.27 C14.53,11.2 15,9.91 15,8.5 C15,4.91 12.09,2 8.5,2 C4.91,2 2,4.91 2,8.5 C2,12.09 4.91,15 8.5,15 C9.91,15 11.2,14.53 12.27,13.76 L16,17.49 L17.49,16 Z M4,8.5 C4,6.01 6.01,4 8.5,4 C10.99,4 13,6.01 13,8.5 C13,10.99 10.99,13 8.5,13 C6.01,13 4,10.99 4,8.5 Z"/>
  </defs>
  <use fill="#8AB4F8" fill-rule="evenodd" transform="translate(-2 -2)" xlink:href="#search-a"/>
</svg>
