<?xml version="1.0" encoding="UTF-8"?>
<svg width="36px" height="36px" viewBox="0 0 36 36" version="1.1" xmlns="http://www.w3.org/2000/svg" xmlns:xlink="http://www.w3.org/1999/xlink">
    <!-- Generator: Sketch 55.2 (78181) - https://sketchapp.com -->
    <title>ic_chrome</title>
    <desc>Created with Sketch.</desc>
    <g id="ic_chrome" stroke="none" stroke-width="1" fill="none" fill-rule="evenodd">
        <g transform="translate(2.000000, 2.000000)" id="ic_chrome_product_black_24dp">
            <g>
                <polygon id="Path" points="0 0 32 0 32 32 0 32"></polygon>
                <path d="M16,10 L27.8666667,10 C25.7333333,5.6 21.2,2.66666667 16,2.66666667 C11.8666667,2.66666667 8.13333333,4.53333333 5.73333333,7.46666667 L10.1333333,15.0666667 C10.5333333,12.2666667 13.0666667,10 16,10 Z M16,22 C13.7333333,22 11.8666667,20.8 10.8,18.9333333 L4.8,8.66666667 C3.46666667,10.8 2.66666667,13.3333333 2.66666667,16 C2.66666667,22.6666667 7.46666667,28.1333333 13.8666667,29.2 L18.2666667,21.6 C17.4666667,21.8666667 16.8,22 16,22 Z M22,16 C22,17.0666667 21.7333333,18.1333333 21.2,18.9333333 L15.2,29.3333333 L16,29.3333333 C23.3333333,29.3333333 29.3333333,23.3333333 29.3333333,16 C29.3333333,14.4 29.0666667,12.8 28.5333333,11.3333333 L19.7333333,11.3333333 C21.0666667,12.4 22,14.1333333 22,16 Z" id="Shape" fill="#E8EAED"></path>
                <circle id="Oval" fill="#E8EAED" cx="16" cy="16" r="4.66666667"></circle>
            </g>
        </g>
    </g>
</svg>