<svg xmlns="http://www.w3.org/2000/svg" width="40" height="24" viewBox="0 0 40 24">
  <g fill="none" fill-rule="evenodd">
    <path fill="#E8EAED" fill-rule="nonzero" d="M13.552,15.192 C14.2,15.192 14.756,15.048 15.22,14.76 C15.684,14.472 16.056,14.076 16.336,13.572 L16.336,13.572 L15.268,13.056 C15.1,13.352 14.876,13.59 14.596,13.77 C14.316,13.95 13.98,14.04 13.588,14.04 C13.108,14.04 12.688,13.882 12.328,13.566 C11.968,13.25 11.76,12.8 11.704,12.216 L11.704,12.216 L16.432,12.216 C16.448,12.104 16.456,11.968 16.456,11.808 C16.456,11.208 16.338,10.672 16.102,10.2 C15.866,9.728 15.524,9.358 15.076,9.09 C14.628,8.822 14.096,8.688 13.48,8.688 C12.896,8.688 12.372,8.836 11.908,9.132 C11.444,9.428 11.082,9.826 10.822,10.326 C10.562,10.826 10.432,11.368 10.432,11.952 C10.432,12.568 10.566,13.122 10.834,13.614 C11.102,14.106 11.474,14.492 11.95,14.772 C12.426,15.052 12.96,15.192 13.552,15.192 Z M15.172,11.244 L11.776,11.244 C11.888,10.804 12.094,10.452 12.394,10.188 C12.694,9.924 13.06,9.792 13.492,9.792 C13.852,9.792 14.154,9.866 14.398,10.014 C14.642,10.162 14.828,10.348 14.956,10.572 C15.084,10.796 15.156,11.02 15.172,11.244 L15.172,11.244 Z M19.948,15.192 C20.412,15.192 20.836,15.112 21.22,14.952 C21.604,14.792 21.906,14.566 22.126,14.274 C22.346,13.982 22.456,13.644 22.456,13.26 C22.456,12.812 22.302,12.436 21.994,12.132 C21.686,11.828 21.232,11.6 20.632,11.448 L20.632,11.448 L19.744,11.232 C19.12,11.072 18.808,10.812 18.808,10.452 C18.808,10.26 18.91,10.1 19.114,9.972 C19.318,9.844 19.572,9.78 19.876,9.78 C20.5,9.78 20.936,10.024 21.184,10.512 L21.184,10.512 L22.3,10.008 C22.108,9.576 21.798,9.248 21.37,9.024 C20.942,8.8 20.44,8.688 19.864,8.688 C19.44,8.688 19.05,8.762 18.694,8.91 C18.338,9.058 18.054,9.268 17.842,9.54 C17.63,9.812 17.524,10.124 17.524,10.476 C17.524,10.94 17.684,11.324 18.004,11.628 C18.324,11.932 18.728,12.144 19.216,12.264 L19.216,12.264 L19.948,12.432 C20.364,12.528 20.67,12.642 20.866,12.774 C21.062,12.906 21.16,13.084 21.16,13.308 C21.16,13.556 21.044,13.742 20.812,13.866 C20.58,13.99 20.292,14.052 19.948,14.052 C19.612,14.052 19.312,13.966 19.048,13.794 C18.784,13.622 18.58,13.372 18.436,13.044 L18.436,13.044 L17.272,13.548 C17.456,14.036 17.774,14.432 18.226,14.736 C18.678,15.04 19.252,15.192 19.948,15.192 Z M26.476,15.192 C27.14,15.192 27.708,15.04 28.18,14.736 C28.652,14.432 29.008,14.02 29.248,13.5 L29.248,13.5 L28.084,12.996 C27.932,13.324 27.718,13.574 27.442,13.746 C27.166,13.918 26.836,14.004 26.452,14.004 C26.116,14.004 25.806,13.918 25.522,13.746 C25.238,13.574 25.014,13.332 24.85,13.02 C24.686,12.708 24.604,12.348 24.604,11.94 C24.604,11.532 24.686,11.172 24.85,10.86 C25.014,10.548 25.238,10.306 25.522,10.134 C25.806,9.962 26.116,9.876 26.452,9.876 C27.212,9.876 27.736,10.204 28.024,10.86 L28.024,10.86 L29.2,10.38 C28.992,9.852 28.654,9.438 28.186,9.138 C27.718,8.838 27.148,8.688 26.476,8.688 C25.868,8.688 25.324,8.828 24.844,9.108 C24.364,9.388 23.99,9.774 23.722,10.266 C23.454,10.758 23.32,11.316 23.32,11.94 C23.32,12.564 23.454,13.122 23.722,13.614 C23.99,14.106 24.364,14.492 24.844,14.772 C25.324,15.052 25.868,15.192 26.476,15.192 Z"/>
    <rect width="39" height="23" x=".5" y=".5" stroke="#E8EAED" rx="4"/>
  </g>
</svg>
