<svg xmlns="http://www.w3.org/2000/svg" xmlns:xlink="http://www.w3.org/1999/xlink" width="20" height="20" viewBox="0 0 20 20">
  <defs>
    <path id="ic_refresh-a" d="M17,3 L17,9 L11,9 L11,7 L13.9973288,7.00021276 C13.0840604,5.78650157 11.6318535,5 10,5 C7.24375,5 5,7.24375 5,10 C5,12.75625 7.24375,15 10,15 C11.6324379,15 13.0851005,14.2129351 13.9983097,12.9984832 L15.4236579,14.424102 C14.1396782,15.9959552 12.18638,17 10,17 C6.136,17 3,13.864 3,10 C3,6.136 6.136,3 10,3 C11.958644,3 13.7302335,3.80577324 15.0011428,5.10369401 L15,3 L17,3 Z"/>
  </defs>
  <use fill="#E8EAED" fill-rule="evenodd" xlink:href="#ic_refresh-a"/>
</svg>
