<?xml version="1.0" encoding="UTF-8"?>
<svg width="36px" height="36px" viewBox="0 0 36 36" version="1.1" xmlns="http://www.w3.org/2000/svg" xmlns:xlink="http://www.w3.org/1999/xlink">
    <!-- Generator: Sketch 55.2 (78181) - https://sketchapp.com -->
    <title>ic_error</title>
    <desc>Created with Sketch.</desc>
    <g id="ic_error" stroke="none" stroke-width="1" fill="none" fill-rule="evenodd">
        <g id="ic_error-outline">
            <g id="error_outline">
                <g id="error_outline_gm2_24px">
                    <path d="M16.5,22.5 L19.5,22.5 L19.5,25.5 L16.5,25.5 L16.5,22.5 Z M16.5,10.5 L19.5,10.5 L19.5,19.5 L16.5,19.5 L16.5,10.5 Z M17.985,3 C9.705,3 3,9.72 3,18 C3,26.28 9.705,33 17.985,33 C26.28,33 33,26.28 33,18 C33,9.72 26.28,3 17.985,3 Z M18,30 C11.37,30 6,24.63 6,18 C6,11.37 11.37,6 18,6 C24.63,6 30,11.37 30,18 C30,24.63 24.63,30 18,30 Z" id="Shape" fill="#E8EAED"></path>
                    <polygon id="Path" points="0 0 36 0 36 36 0 36"></polygon>
                </g>
            </g>
        </g>
    </g>
</svg>