<?xml version="1.0" encoding="UTF-8"?>
<svg width="20px" height="20px" viewBox="0 0 20 20" version="1.1" xmlns="http://www.w3.org/2000/svg" xmlns:xlink="http://www.w3.org/1999/xlink">
    <!-- Generator: Sketch 55.2 (78181) - https://sketchapp.com -->
    <title>ic_language</title>
    <desc>Created with Sketch.</desc>
    <defs>
        <path d="M9.992,2 C5.576,2 2,5.584 2,10 C2,14.416 5.576,18 9.992,18 C14.416,18 18,14.416 18,10 C18,5.584 14.416,2 9.992,2 Z M15.536,6.8 L13.176,6.8 C12.92,5.8 12.552,4.84 12.072,3.952 C13.544,4.456 14.768,5.48 15.536,6.8 Z M10,3.632 C10.664,4.592 11.184,5.656 11.528,6.8 L8.472,6.8 C8.816,5.656 9.336,4.592 10,3.632 Z M3.808,11.6 C3.68,11.088 3.6,10.552 3.6,10 C3.6,9.448 3.68,8.912 3.808,8.4 L6.512,8.4 C6.448,8.928 6.4,9.456 6.4,10 C6.4,10.544 6.448,11.072 6.512,11.6 L3.808,11.6 Z M4.464,13.2 L6.824,13.2 C7.08,14.2 7.448,15.16 7.928,16.048 C6.456,15.544 5.232,14.528 4.464,13.2 L4.464,13.2 Z M6.824,6.8 L4.464,6.8 C5.232,5.472 6.456,4.456 7.928,3.952 C7.448,4.84 7.08,5.8 6.824,6.8 L6.824,6.8 Z M10,16.368 C9.336,15.408 8.816,14.344 8.472,13.2 L11.528,13.2 C11.184,14.344 10.664,15.408 10,16.368 Z M11.872,11.6 L8.128,11.6 C8.056,11.072 8,10.544 8,10 C8,9.456 8.056,8.92 8.128,8.4 L11.872,8.4 C11.944,8.92 12,9.456 12,10 C12,10.544 11.944,11.072 11.872,11.6 Z M12.072,16.048 C12.552,15.16 12.92,14.2 13.176,13.2 L15.536,13.2 C14.768,14.52 13.544,15.544 12.072,16.048 L12.072,16.048 Z M13.488,11.6 C13.552,11.072 13.6,10.544 13.6,10 C13.6,9.456 13.552,8.928 13.488,8.4 L16.192,8.4 C16.32,8.912 16.4,9.448 16.4,10 C16.4,10.552 16.32,11.088 16.192,11.6 L13.488,11.6 Z" id="path-1"></path>
    </defs>
    <g id="ic_language" stroke="none" stroke-width="1" fill="none" fill-rule="evenodd">
        <g id="dense/device/language">
            <mask id="mask-2" fill="white">
                <use xlink:href="#path-1"></use>
            </mask>
            <use id="↳Color-fill" fill="#5F6368" fill-rule="evenodd" xlink:href="#path-1"></use>
        </g>
    </g>
</svg>