<?xml version="1.0" encoding="UTF-8"?>
<svg width="48px" height="48px" viewBox="0 0 48 48" version="1.1" xmlns="http://www.w3.org/2000/svg" xmlns:xlink="http://www.w3.org/1999/xlink">
    <!-- Generator: Sketch 55.2 (78181) - https://sketchapp.com -->
    <title>ic_low-battery</title>
    <desc>Created with Sketch.</desc>
    <defs>
        <path d="M21.6,14.4 L26.4,14.4 L26.4,26.4 L21.6,26.4 L21.6,14.4 Z M21.6,28.8 L26.4,28.8 L26.4,33.6 L21.6,33.6 L21.6,28.8 Z" id="path-1"></path>
    </defs>
    <g id="ic_low-battery" stroke="none" stroke-width="1" fill="none" fill-rule="evenodd">
        <g id="dense/device/battery-warning">
            <g id="Icon-group" transform="translate(14.400000, 7.200000)">
                <path d="M16.8,4.8 L14.4,4.8 L14.4,0 L4.8,0 L4.8,4.8 L2.4,4.8 C1.2,4.8 0,6 0,7.2 L0,31.2 C0,32.4 1.2,33.6 2.4,33.6 L16.8,33.6 C18,33.6 19.2,32.4 19.2,31.2 L19.2,7.2 C19.2,6 18,4.8 16.8,4.8 Z" id="Combined-Shape" fill-opacity="0.3" fill="#E8EAED"></path>
                <path d="M19.2,31.2 C19.2,32.4 18,33.6 16.8,33.6 L2.4,33.6 C1.2,33.6 0,32.4 0,31.2 L19.2,31.2 Z" id="Combined-Shape" fill="#E8EAED"></path>
                <g id="Warning-icon" transform="translate(-14.400000, -7.200000)">
                    <rect id="Rectangle-3" x="0" y="0" width="48" height="48"></rect>
                    <mask id="mask-2" fill="white">
                        <use xlink:href="#path-1"></use>
                    </mask>
                    <use id="Combined-Shape" fill="#E8EAED" xlink:href="#path-1"></use>
                </g>
            </g>
        </g>
    </g>
</svg>