<?xml version="1.0" encoding="UTF-8"?>
<svg width="36px" height="36px" viewBox="0 0 36 36" version="1.1" xmlns="http://www.w3.org/2000/svg" xmlns:xlink="http://www.w3.org/1999/xlink">
    <!-- Generator: Sketch 55.2 (78181) - https://sketchapp.com -->
    <title>ic_restart</title>
    <desc>Created with Sketch.</desc>
    <g id="ic_restart" stroke="none" stroke-width="1" fill="none" fill-rule="evenodd">
        <g id="restart_alt">
            <g>
                <path d="M9,19.5 C9,17.025 10.005,14.775 11.64,13.14 L9.51,11.01 C7.35,13.185 6,16.185 6,19.5 C6,25.62 10.575,30.66 16.5,31.395 L16.5,28.365 C12.255,27.645 9,23.955 9,19.5 Z M30,19.5 C30,12.87 24.63,7.5 18,7.5 C17.91,7.5 17.82,7.515 17.73,7.515 L19.365,5.88 L17.25,3.75 L12,9 L17.25,14.25 L19.365,12.135 L17.745,10.515 C17.835,10.515 17.925,10.5 18,10.5 C22.965,10.5 27,14.535 27,19.5 C27,23.955 23.745,27.645 19.5,28.365 L19.5,31.395 C25.425,30.66 30,25.62 30,19.5 Z" id="Shape" fill="#E8EAED"></path>
                <polygon id="Path" points="0 0 36 0 36 36 0 36"></polygon>
            </g>
        </g>
    </g>
</svg>