<?xml version="1.0" encoding="UTF-8"?>
<svg width="20px" height="20px" viewBox="0 0 20 20" version="1.1" xmlns="http://www.w3.org/2000/svg" xmlns:xlink="http://www.w3.org/1999/xlink">
    <!-- Generator: Sketch 55.2 (78181) - https://sketchapp.com -->
    <title>ic_tablet</title>
    <desc>Created with Sketch.</desc>
    <g id="ic_tablet" stroke="none" stroke-width="1" fill="none" fill-rule="evenodd">
        <g id="tablet_gm2_24px">
            <g>
                <polygon id="Path" points="0 0 20 0 20 20 0 20"></polygon>
                <path d="M0.841666667,5 L0.833333333,15 C0.833333333,15.9166667 1.58333333,16.6666667 2.5,16.6666667 L17.5,16.6666667 C18.4166667,16.6666667 19.1666667,15.9166667 19.1666667,15 L19.1666667,5 C19.1666667,4.08333333 18.4166667,3.33333333 17.5,3.33333333 L2.5,3.33333333 C1.58333333,3.33333333 0.841666667,4.08333333 0.841666667,5 Z M17.5,5 L17.5,15 L16.6666667,15 L16.6666667,5 L17.5,5 Z M15,5 L15,15 L5,15 L5,5 L15,5 Z M3.33333333,15 L2.5,15 L2.5,5 L3.33333333,5 L3.33333333,15 Z" id="Shape" fill="#9AA0A6"></path>
            </g>
        </g>
    </g>
</svg>